<?xml version="1.0" encoding="iso-8859-1"?>
<!-- Uploaded to: SVG Repo, www.svgrepo.com, Generator: SVG Repo Mixer Tools -->
<svg fill="#000000" height="800px" width="800px" version="1.1" id="Capa_1" xmlns="http://www.w3.org/2000/svg" xmlns:xlink="http://www.w3.org/1999/xlink" 
	 viewBox="0 0 490 490" xml:space="preserve">
<g>
	<path d="M393.729,205.074c-12.172-29.818-41.152-49.751-74.125-49.751c-4.052,0-8.105,0.314-12.098,0.912
		c-20.666-42.573-64.33-70.342-112.631-70.342c-68.682,0-124.608,55.373-124.982,123.592C28.696,222.585,0,260.612,0,304.411
		c0,54.97,44.966,99.696,100.249,99.696h289.502c55.284,0,100.249-44.726,100.249-99.785
		C489.701,250.966,446.904,207.287,393.729,205.074z M389.751,373.482H100.249c-38.386,0-69.624-30.984-69.624-69.071
		c0-32.913,24.838-62.162,57.781-68.024l13.563-2.423l-0.987-13.742c-0.224-3.215-0.464-6.639-0.464-10.064
		c0-51.635,42.334-93.639,94.357-93.639c40.031,0,75.845,25.227,89.124,62.76l5.039,14.296l14.355-4.905
		c5.264-1.809,10.722-2.721,16.21-2.721c22.909,0,42.707,15.611,48.121,37.952l2.841,11.709h18.931
		c38.326,0,69.669,30.909,69.878,68.802C459.375,342.497,428.137,373.482,389.751,373.482z"/>
</g>
</svg>